#!OML:ASF H:\LiuWeirdWalks\Patient Classification 1\Patient 1\Session 1\male.ASF
:FULLY-SPECIFIED
:DEGREES
243
root -1.22203 17.7782 -25.6693 2.63124 3.96675 -3.4431
lowerback 5.3944 -0.813464 1.94821
upperback -0.161419 -0.837257 3.74424
thorax -3.16646 -0.418052 2.84146
lowerneck -16.4863 1.79734 9.34376
upperneck 20.6258 2.28717 -9.71519
head 9.43321 0.730796 -4.6672
rclavicle -1.67476e-014 7.15625e-015
rhumerus -31.7466 -9.82979 -74.9206
rradius 23.9974
rwrist -2.79607
rhand -15.5809 -1.77742
rfingers 7.12502
rthumb 10.6045 -31.4899
lclavicle -1.67476e-014 7.15625e-015
lhumerus -32.7001 7.73002 85.0376
lradius 28.9854
lwrist 6.41356
lhand -13.9857 2.44649
lfingers 7.12502
lthumb 12.1429 32.0741
rfemur -5.66759 -0.00250083 25.8073
rtibia 28.2027
rfoot -17.9216 -24.7107
rtoes -0.147767
lfemur -27.2745 1.71026 -7.11315
ltibia 59.969
lfoot -7.39554 17.3766
ltoes -13.6404
244
root -1.23111 17.7789 -25.6269 2.63443 3.89671 -3.49017
lowerback 5.42092 -0.907926 1.98845
upperback -0.142558 -0.955125 3.90551
thorax -3.15597 -0.476209 2.99636
lowerneck -16.6995 1.85467 9.40278
upperneck 20.8498 2.48756 -10.3023
head 9.58068 0.76027 -4.87288
rclavicle 2.29596e-014 1.74931e-014
rhumerus -31.4804 -9.37715 -74.7192
rradius 23.773
rwrist -2.62135
rhand -15.6091 -1.83968
rfingers 7.12502
rthumb 10.5772 -31.5535
lclavicle 2.29596e-014 1.74931e-014
lhumerus -32.9232 8.39248 85.0045
lradius 29.0289
lwrist 6.29954
lhand -13.8555 2.39306
lfingers 7.12502
lthumb 12.2684 32.0132
rfemur -5.39925 -0.00134518 25.8935
rtibia 27.9562
rfoot -17.8883 -24.673
rtoes -0.286364
lfemur -27.9318 1.81571 -7.2059
ltibia 60.2791
lfoot -7.62146 16.8995
ltoes -13.7986
245
root -1.23955 17.7795 -25.5827 2.64696 3.83799 -3.53637
lowerback 5.43491 -0.995643 2.03627
upperback -0.131205 -1.06427 4.051
thorax -3.14644 -0.530277 3.12991
lowerneck -16.9399 1.91541 9.48733
upperneck 21.1015 2.68385 -10.8702
head 9.7453 0.790194 -5.07994
rclavicle -4.87022e-015 -3.18055e-015
rhumerus -31.2419 -8.9799 -74.5195
rradius 23.5562
rwrist -2.41871
rhand -15.6409 -1.91016
rfingers 7.12502
rthumb 10.5466 -31.6256
lclavicle -4.87022e-015 -3.18055e-015
lhumerus -33.1496 9.01058 84.9563
lradius 29.0656
lwrist 6.20329
lhand -13.7121 2.34207
lfingers 7.12502
lthumb 12.4066 31.9539
rfemur -5.12959 -0.00934834 25.9756
rtibia 27.7035
rfoot -17.8707 -24.6263
rtoes -0.424929
lfemur -28.5657 1.94417 -7.31081
ltibia 60.4312
lfoot -7.82057 16.4075
ltoes -14.0457
246
root -1.24699 17.7811 -25.5362 2.66984 3.78932 -3.55267
lowerback 5.43808 -1.00926 2.10868
upperback -0.135105 -1.07574 4.10337
thorax -3.15228 -0.536707 3.14482
lowerneck -17.1006 1.96432 9.60313
upperneck 21.2366 2.79832 -11.2039
head 9.8433 0.811834 -5.21399
rclavicle 1.37161e-014 9.54166e-015
rhumerus -31.1255 -8.90686 -74.3072
rradius 23.3619
rwrist -2.16961
rhand -15.6695 -1.95035
rfingers 7.12502
rthumb 10.519 -31.6671
lclavicle 1.37161e-014 9.54166e-015
lhumerus -33.3466 9.31391 84.8932
lradius 29.0792
lwrist 6.15785
lhand -13.564 2.28876
lfingers 7.12502
lthumb 12.5495 31.8919
rfemur -4.85271 -0.0343716 26.0179
rtibia 27.4429
rfoot -17.8855 -24.5565
rtoes -0.547548
lfemur -29.1628 2.08083 -7.46392
ltibia 60.4178
lfoot -7.98729 15.9224
ltoes -14.3531
247
root -1.25384 17.7829 -25.488 2.69831 3.74684 -3.56411
lowerback 5.43368 -0.912396 2.23733
upperback -0.158243 -0.939292 4.04027
thorax -3.18211 -0.471149 2.99601
lowerneck -17.1561 2.00125 9.75461
upperneck 21.2157 2.80063 -11.199
head 9.84885 0.82472 -5.23793
rclavicle 7.85199e-015 -1.35174e-014
rhumerus -31.1879 -9.27436 -74.0754
rradius 23.2083
rwrist -1.87441
rhand -15.6859 -1.99353
rfingers 7.12502
rthumb 10.5032 -31.7111
lclavicle 7.85199e-015 -1.35174e-014
lhumerus -33.487 9.16623 84.8236
lradius 29.043
lwrist 6.17353
lhand -13.406 2.25595
lfingers 7.12502
lthumb 12.7018 31.8497
rfemur -4.56755 -0.0592871 26.0523
rtibia 27.1713
rfoot -17.9115 -24.4797
rtoes -0.663241
lfemur -29.7274 2.22414 -7.63141
ltibia 60.2453
lfoot -8.10983 15.4474
ltoes -14.6918
248
root -1.26008 17.7847 -25.4389 2.73423 3.71297 -3.57854
lowerback 5.44276 -0.738327 2.42118
upperback -0.187993 -0.698037 3.89335
thorax -3.23036 -0.355077 2.72076
lowerneck -17.0964 2.01151 9.9088
upperneck 20.9943 2.6995 -10.9448
head 9.74594 0.820101 -5.17564
rclavicle 1.32192e-014 -3.57812e-014
rhumerus -31.3528 -9.94131 -73.8483
rradius 23.0957
rwrist -1.59608
rhand -15.7195 -2.06734
rfingers 7.12502
rthumb 10.4708 -31.7866
lclavicle 1.32192e-014 -3.57812e-014
lhumerus -33.5594 8.7085 84.7464
lradius 28.9661
lwrist 6.22733
lhand -13.2355 2.23244
lfingers 7.12502
lthumb 12.8661 31.8159
rfemur -4.28072 -0.0825424 26.088
rtibia 26.8889
rfoot -17.9394 -24.4003
rtoes -0.784687
lfemur -30.2695 2.36326 -7.8037
ltibia 59.9218
lfoot -8.19681 14.9911
ltoes -15.1158
249
root -1.26605 17.7863 -25.3894 2.77419 3.67482 -3.60893
lowerback 5.46597 -0.546226 2.62208
upperback -0.218017 -0.4313 3.73647
thorax -3.28481 -0.226994 2.4237
lowerneck -17.0148 2.01137 10.06
upperneck 20.7149 2.57431 -10.6492
head 9.61586 0.808224 -5.09902
rclavicle 1.21756e-014 3.57812e-014
rhumerus -31.5396 -10.6418 -73.6312
rradius 23.009
rwrist -1.3516
rhand -15.7606 -2.13313
rfingers 7.12502
rthumb 10.4311 -31.8544
lclavicle 1.21756e-014 3.57812e-014
lhumerus -33.6008 8.21024 84.6612
lradius 28.8574
lwrist 6.26008
lhand -13.0654 2.197
lfingers 7.12502
lthumb 13.0302 31.77
rfemur -3.9935 -0.0931918 26.1405
rtibia 26.596
rfoot -17.9464 -24.3231
rtoes -0.917415
lfemur -30.7872 2.50609 -7.96053
ltibia 59.4585
lfoot -8.25376 14.558
ltoes -15.4928
250
root -1.27175 17.7874 -25.3398 2.82191 3.63856 -3.6501
lowerback 5.50363 -0.313219 2.86229
upperback -0.24209 -0.108608 3.53286
thorax -3.33889 -0.0724795 2.05136
lowerneck -16.8613 1.98797 10.2097
upperneck 20.2677 2.38421 -10.221
head 9.40599 0.780216 -4.97682
rclavicle -1.09332e-015 2.94201e-014
rhumerus -31.7591 -11.5117 -73.429
rradius 22.9444
rwrist -1.11473
rhand -15.8204 -2.18784
rfingers 7.12502
rthumb 10.3734 -31.912
lclavicle -1.09332e-015 2.94201e-014
lhumerus -33.5805 7.53261 84.5697
lradius 28.7261
lwrist 6.30957
lhand -12.899 2.15111
lfingers 7.12502
lthumb 13.1906 31.7138
rfemur -3.71455 -0.0936925 26.2058
rtibia 26.2968
rfoot -17.9282 -24.2585
rtoes -1.07433
lfemur -31.2858 2.65197 -8.10664
ltibia 58.8637
lfoot -8.29337 14.1389
ltoes -15.8443
251
root -1.2772 17.7881 -25.29 2.8758 3.60416 -3.71494
lowerback 5.55388 -0.527708 2.81219
upperback -0.248285 -0.385206 3.81531
thorax -3.36773 -0.206895 2.39681
lowerneck -17.1188 1.99094 9.93111
upperneck 20.6299 2.61246 -10.84
head 9.61091 0.791903 -5.13911
rclavicle 1.6201e-014 -2.8625e-014
rhumerus -31.3598 -10.5577 -73.3391
rradius 22.7813
rwrist -1.11124
rhand -15.8545 -2.25304
rfingers 7.12502
rthumb 10.3406 -31.9788
lclavicle 1.6201e-014 -2.8625e-014
lhumerus -33.8664 8.70951 84.461
lradius 28.6993
lwrist 6.15261
lhand -12.7577 2.09928
lfingers 7.12502
lthumb 13.3268 31.6531
rfemur -3.44495 -0.0793994 26.2991
rtibia 25.9925
rfoot -17.8799 -24.2138
rtoes -1.25877
lfemur -31.7679 2.79862 -8.22727
ltibia 58.1462
lfoot -8.31509 13.741
ltoes -16.125
252
root -1.28145 17.7889 -25.2383 2.93207 3.55476 -3.75169
lowerback 5.59992 -0.674007 2.78685
upperback -0.251488 -0.572444 4.01529
thorax -3.39114 -0.297967 2.63578
lowerneck -17.3472 1.99148 9.75934
upperneck 20.882 2.78387 -11.355
head 9.76795 0.795283 -5.28704
rclavicle -1.87852e-014 3.49861e-014
rhumerus -31.0356 -9.88135 -73.2436
rradius 22.6319
rwrist -1.06086
rhand -15.8796 -2.2716
rfingers 7.12502
rthumb 10.3163 -31.9986
lclavicle -1.87852e-014 3.49861e-014
lhumerus -34.1082 9.6019 84.349
lradius 28.6679
lwrist 6.04493
lhand -12.6454 2.04634
lfingers 7.12502
lthumb 13.435 31.5931
rfemur -3.17059 -0.0677035 26.3526
rtibia 25.6878
rfoot -17.8274 -24.1586
rtoes -1.45545
lfemur -32.2014 2.94612 -8.38669
ltibia 57.3082
lfoot -8.326 13.3883
ltoes -16.3912
